HIERARCHY
ROOT hip
{
	OFFSET 0.000000 0.000000 0.000000 
	CHANNELS 6 Xposition Yposition Zposition Xrotation Zrotation Yrotation
	JOINT abdomen
	{
		OFFSET 0.000000 3.402643 0.000000 
		CHANNELS 3 Xrotation Zrotation Yrotation
		JOINT chest
		{
			OFFSET 0.000000 8.438565 -0.680529 
			CHANNELS 3 Xrotation Zrotation Yrotation
			JOINT neck
			{
				OFFSET 0.000000 10.207942 -0.272212 
				CHANNELS 3 Xrotation Zrotation Yrotation
				JOINT head
				{
					OFFSET 0.000000 3.130431 0.000000 
					CHANNELS 3 Xrotation Zrotation Yrotation
					End Site
					{
						OFFSET 0.000000 3.130435 0.000000 
					}
				}
			}
			JOINT lCollar
			{
				OFFSET 3.470700 6.669187 -0.816635 
				CHANNELS 3 Yrotation Zrotation Xrotation
				JOINT lShldr
				{
					OFFSET 3.198488 0.000000 0.000000 
					CHANNELS 3 Zrotation Yrotation Xrotation
					JOINT lForeArm
					{
						OFFSET 10.139888 0.000000 0.000000 
						CHANNELS 3 Yrotation Zrotation Xrotation
						JOINT lHand
						{
							OFFSET 8.370511 0.000000 0.000000 
							CHANNELS 3 Zrotation Yrotation Xrotation
							End Site
							{
								OFFSET 4.083176 0.000000 0.000000 
							}
						}
					}
				}
			}
			JOINT rCollar
			{
				OFFSET -3.470700 6.669187 -0.816635 
				CHANNELS 3 Yrotation Zrotation Xrotation
				JOINT rShldr
				{
					OFFSET -3.198488 0.000000 0.000000 
					CHANNELS 3 Zrotation Yrotation Xrotation
					JOINT rForeArm
					{
						OFFSET -10.139888 0.000000 0.000000 
						CHANNELS 3 Yrotation Zrotation Xrotation
						JOINT rHand
						{
							OFFSET -8.370511 0.000000 0.000000 
							CHANNELS 3 Zrotation Yrotation Xrotation
							End Site
							{
								OFFSET -4.083176 0.000000 0.000000 
							}
						}
					}
				}
			}
		}
	}
	JOINT lThigh
	{
		OFFSET 5.308129 -1.633274 1.361059 
		CHANNELS 3 Xrotation Zrotation Yrotation
		JOINT lShin
		{
			OFFSET -2.041588 -20.007561 0.000000 
			CHANNELS 3 Xrotation Zrotation Yrotation
			JOINT lFoot
			{
				OFFSET 0.000000 -19.190928 -1.224953 
				CHANNELS 3 Xrotation Yrotation Zrotation
				End Site
				{
					OFFSET 0.000000 -2.449906 4.627600 
				}
			}
		}
	}
	JOINT rThigh
	{
		OFFSET -5.308129 -1.633274 1.361059 
		CHANNELS 3 Xrotation Zrotation Yrotation
		JOINT rShin
		{
			OFFSET 2.041588 -20.007561 0.000000 
			CHANNELS 3 Xrotation Zrotation Yrotation
			JOINT rFoot
			{
				OFFSET 0.000000 -19.190928 -1.224953 
				CHANNELS 3 Xrotation Yrotation Zrotation
				End Site
				{
					OFFSET 0.000000 -2.449906 4.627600 
				}
			}
		}
	}
}
MOTION
Frames: 8
Frame Time: 0.033333
18.380680 39.472672 -58.402775 0.009965 11.494141 -82.837906 0.000000 0.000000 0.000000 35.029587 -2.199606 -3.885237 -8.603516 0.000000 0.000000 -6.311219 -17.011194 35.734264 -2.957607 -0.090307 -0.002318 -75.649620 -45.199734 -12.475249 -30.666016 -21.305080 8.874279 35.531036 -17.442289 52.894978 2.957607 0.090307 -0.002334 72.162346 32.605225 -13.495462 29.334864 13.146058 11.961119 -36.790554 22.513582 13.286361 -32.864838 33.859764 6.382339 37.322063 -1.271500 -5.778927 -1.856239 -0.026818 -23.662439 -27.017862 -29.885250 -15.576643 45.765282 -2.391752 5.990520 -26.137262 7.895977 9.798252 
18.508709 39.981968 -58.451160 0.099821 11.953107 -84.098839 0.000000 0.000000 0.000000 35.135883 -1.206008 -3.827134 -8.603516 0.000000 0.000000 -4.919534 -17.300964 31.706024 -2.957607 -0.090307 -0.002318 -74.476440 -41.935207 -9.240206 -28.118776 -20.238792 9.094726 33.579922 -16.575409 54.488121 2.957607 0.090307 -0.002334 71.904533 35.897854 -13.378352 29.441957 12.581861 11.429248 -35.503788 21.660236 14.199704 -32.273365 33.513027 6.894597 37.421017 -1.340474 -5.718517 -1.417656 1.318521 -23.214527 -28.016163 -29.147688 -15.434617 45.078575 -2.069106 6.006970 -24.876911 9.129874 9.438298 
18.551311 40.550976 -58.380001 0.340118 12.519318 -85.687630 0.000000 0.000000 0.000000 35.244648 -0.287121 -3.113078 -8.603516 0.000000 0.000000 -5.048607 -17.912266 30.782967 -2.957607 -0.090307 -0.002318 -73.364090 -37.569408 -8.027651 -28.252230 -20.591522 9.555619 33.062569 -16.412420 55.118172 2.957607 0.090307 -0.002334 71.011055 38.031918 -14.555580 31.552504 13.075394 10.256174 -35.302513 21.824093 16.074446 -31.201181 33.115173 7.995890 37.115940 -1.244550 -5.536200 -1.452261 2.484599 -22.649811 -29.088892 -28.295898 -15.583326 43.841820 -2.079416 6.111837 -22.395824 10.954648 11.987172 
18.539980 41.219692 -58.155216 0.882423 13.123497 -87.454460 0.000000 0.000000 0.000000 35.189545 0.806103 -1.902236 -8.603516 0.000000 0.000000 -5.987031 -18.651936 32.424702 -2.957607 -0.090307 -0.002318 -72.852570 -32.632034 -7.730518 -29.566181 -21.289677 9.612940 34.242371 -18.539757 52.948872 2.957607 0.090307 -0.002334 68.551292 38.874146 -18.264952 35.483654 14.706785 8.767935 -35.353729 21.741385 17.743441 -30.093164 32.903728 8.963825 36.716881 -1.247964 -5.477479 -1.856762 3.485059 -22.254946 -30.028231 -27.273703 -15.763125 42.477509 -2.447717 5.908809 -19.541519 12.358356 13.466746 
18.460331 41.822800 -57.938915 1.236189 13.668812 -89.189301 0.000000 0.000000 0.000000 34.834740 1.827870 -0.300356 -8.603516 0.000000 0.000000 -7.190999 -19.225863 36.404381 -2.957607 -0.090307 -0.002318 -73.019554 -27.731401 -7.975727 -31.214272 -22.012121 9.353911 37.367149 -21.347403 48.538391 2.957607 0.090307 -0.002334 65.208817 38.418285 -24.270702 41.095116 17.318111 7.403207 -35.156460 22.757938 20.425936 -29.108095 32.446472 9.437977 36.331730 -1.330331 -5.540546 -2.670584 4.319547 -22.003721 -30.631285 -26.762592 -14.802868 41.164433 -2.186532 5.608625 -16.122892 11.497337 13.315895 
18.377846 42.391922 -57.731236 1.571153 14.155046 -90.855652 0.000000 0.000000 0.000000 34.378700 2.676764 1.439727 -8.603516 0.000000 0.000000 -8.505077 -19.558182 41.837124 -2.957607 -0.090307 -0.002318 -73.550179 -23.273809 -9.144284 -32.699017 -22.772985 9.035916 39.882614 -22.684797 43.906254 2.957607 0.090307 -0.002334 61.702541 36.818916 -30.591824 47.872780 20.178694 5.326789 -34.353416 24.030781 24.441332 -28.275827 31.935123 9.913697 35.701717 -1.310973 -5.384345 -3.075940 4.075494 -21.956324 -31.248911 -26.258337 -13.284554 39.949474 -2.060422 5.336197 -12.985596 10.569646 12.684519 
18.337963 42.909718 -57.694294 1.646500 14.808605 -91.882751 0.000000 0.000000 0.000000 33.661503 3.415631 2.838532 -8.603516 0.000000 0.000000 -9.578081 -19.554050 47.891457 -2.957607 -0.090307 -0.002318 -74.202515 -19.441053 -10.708500 -33.944752 -23.434969 8.738634 41.468708 -23.678305 39.843830 2.957607 0.090307 -0.002334 58.896954 34.739613 -36.943295 55.058506 23.210285 2.900383 -34.022720 25.754683 29.399675 -28.736948 31.606503 9.404562 35.138088 -1.457291 -5.465659 -2.415508 4.373971 -22.005484 -31.854538 -26.092640 -11.803533 38.981491 -1.737997 5.024399 -10.365852 9.051990 13.665503 
18.312357 43.262543 -57.825165 1.571877 15.638932 -92.300667 0.000000 0.000000 0.000000 33.157944 4.008756 3.982717 -8.603516 0.000000 0.000000 -10.181148 -19.190948 53.633636 -2.957607 -0.090307 -0.002318 -74.562355 -16.426958 -12.481850 -35.075619 -24.109465 8.601635 42.520344 -24.344233 35.860210 2.957607 0.090307 -0.002334 57.039577 32.797085 -42.094830 62.947609 25.805790 -0.432232 -33.171539 27.482431 35.622730 -29.814766 31.318661 8.676653 34.556164 -1.407870 -5.623483 -1.371483 4.423192 -22.267258 -32.007191 -26.293644 -10.717265 37.925236 -1.425393 4.662107 -8.702949 7.385043 14.748284 
